#usda 1.0
(
    defaultPrim = "PropellantTank"
    upAxis = "Y"
    metersPerUnit = 1.0
)

def Xform "PropellantTank" (
    kind = "component"
)
{
    custom string lunco:visual:component = "propellant_tank"
    def Cube "TankCradlePad"
    {
        custom double3 xformOp:translate = (0.0, -0.7849999999999997, 0.0)
        uniform token[] xformOpOrder = ["xformOp:translate", "xformOp:scale"]
        custom double3 xformOp:scale = (1.08, 0.13, 1.08)
        double size = 1.0
        uniform token purpose = "render"
        bool physics:collisionEnabled = false
        color3f[] primvars:displayColor = [(0.11999999731779099, 0.12999999523162842, 0.1599999964237213)]
    }
    def Xform "TankMountBrackets"
    {
        def Cube "TankMountBracketPX" (
            prepend apiSchemas = "PhysicsCollisionAPI"
        )
        {
            custom double3 xformOp:translate = (0.4447473758846575, -0.6482420453384021, 0.4444066231886681)
            uniform token[] xformOpOrder = ["xformOp:translate", "xformOp:rotateXYZ", "xformOp:scale"]
            custom double3 xformOp:rotateXYZ = (-12.0, 0.0, -12.0)
            custom double3 xformOp:scale = (0.1, 0.15, 0.1)
            double size = 1.0
            bool physics:collisionEnabled = false
            color3f[] primvars:displayColor = [(0.11999999731779099, 0.14000000059604645, 0.17000000178813934)]
            uniform token purpose = "render"
        }
        def Cube "TankMountBracketNX" (
            prepend apiSchemas = "PhysicsCollisionAPI"
        )
        {
            custom double3 xformOp:translate = (-0.4447473758846575, -0.6482420453384021, 0.4444066231886681)
            uniform token[] xformOpOrder = ["xformOp:translate", "xformOp:rotateXYZ", "xformOp:scale"]
            custom double3 xformOp:rotateXYZ = (-12.0, 0.0, 12.0)
            custom double3 xformOp:scale = (0.1, 0.15, 0.1)
            double size = 1.0
            bool physics:collisionEnabled = false
            color3f[] primvars:displayColor = [(0.11999999731779099, 0.14000000059604645, 0.17000000178813934)]
            uniform token purpose = "render"
        }
        def Cube "TankMountBracketPZ" (
            prepend apiSchemas = "PhysicsCollisionAPI"
        )
        {
            custom double3 xformOp:translate = (0.4447473758846575, -0.6482420453384021, -0.4444066231886681)
            uniform token[] xformOpOrder = ["xformOp:translate", "xformOp:rotateXYZ", "xformOp:scale"]
            custom double3 xformOp:rotateXYZ = (12.0, 0.0, -12.0)
            custom double3 xformOp:scale = (0.1, 0.15, 0.1)
            double size = 1.0
            bool physics:collisionEnabled = false
            color3f[] primvars:displayColor = [(0.11999999731779099, 0.14000000059604645, 0.17000000178813934)]
            uniform token purpose = "render"
        }
        def Cube "TankMountBracketNZ" (
            prepend apiSchemas = "PhysicsCollisionAPI"
        )
        {
            custom double3 xformOp:translate = (-0.4447473758846575, -0.6482420453384021, -0.4444066231886681)
            uniform token[] xformOpOrder = ["xformOp:translate", "xformOp:rotateXYZ", "xformOp:scale"]
            custom double3 xformOp:rotateXYZ = (12.0, 0.0, 12.0)
            custom double3 xformOp:scale = (0.1, 0.15, 0.1)
            double size = 1.0
            bool physics:collisionEnabled = false
            color3f[] primvars:displayColor = [(0.11999999731779099, 0.14000000059604645, 0.17000000178813934)]
            uniform token purpose = "render"
        }
    }
    def Cylinder "TankBandA"
    {
        custom double3 xformOp:translate = (0.0, -0.24, 0.0)
        uniform token[] xformOpOrder = ["xformOp:translate"]
        double radius = 0.82
        double height = 0.045
        uniform token axis = "Y"
        float3[] extent = [(-0.8199999928474426, -0.02250000089406967, -0.8199999928474426), (0.8199999928474426, 0.02250000089406967, 0.8199999928474426)]
        uniform token purpose = "render"
        bool physics:collisionEnabled = false
        color3f[] primvars:displayColor = [(0.10000000149011612, 0.11999999731779099, 0.15000000596046448)]
    }
    def Cylinder "TankBandB"
    {
        custom double3 xformOp:translate = (0.0, 0.0, 0.0)
        uniform token[] xformOpOrder = ["xformOp:translate"]
        double radius = 0.86
        double height = 0.045
        uniform token axis = "Y"
        float3[] extent = [(-0.8600000143051147, -0.02250000089406967, -0.8600000143051147), (0.8600000143051147, 0.02250000089406967, 0.8600000143051147)]
        uniform token purpose = "render"
        bool physics:collisionEnabled = false
        color3f[] primvars:displayColor = [(0.10000000149011612, 0.11999999731779099, 0.15000000596046448)]
    }
    def Cylinder "TankBandC"
    {
        custom double3 xformOp:translate = (0.0, 0.24, 0.0)
        uniform token[] xformOpOrder = ["xformOp:translate"]
        double radius = 0.82
        double height = 0.045
        uniform token axis = "Y"
        float3[] extent = [(-0.8199999928474426, -0.02250000089406967, -0.8199999928474426), (0.8199999928474426, 0.02250000089406967, 0.8199999928474426)]
        uniform token purpose = "render"
        bool physics:collisionEnabled = false
        color3f[] primvars:displayColor = [(0.10000000149011612, 0.11999999731779099, 0.15000000596046448)]
    }
    def Cylinder "TankNeckTop"
    {
        custom double3 xformOp:translate = (0.0, 0.62, 0.0)
        uniform token[] xformOpOrder = ["xformOp:translate"]
        double radius = 0.14
        double height = 0.12
        uniform token axis = "Y"
        float3[] extent = [(-0.14000000059604645, -0.05999999865889549, -0.14000000059604645), (0.14000000059604645, 0.05999999865889549, 0.14000000059604645)]
        uniform token purpose = "render"
        bool physics:collisionEnabled = false
        color3f[] primvars:displayColor = [(0.25, 0.1899999976158142, 0.11999999731779099)]
    }
    def Cylinder "TankNeckBottom"
    {
        custom double3 xformOp:translate = (0.0, -0.62, 0.0)
        uniform token[] xformOpOrder = ["xformOp:translate"]
        double radius = 0.14
        double height = 0.12
        uniform token axis = "Y"
        float3[] extent = [(-0.14000000059604645, -0.05999999865889549, -0.14000000059604645), (0.14000000059604645, 0.05999999865889549, 0.14000000059604645)]
        uniform token purpose = "render"
        bool physics:collisionEnabled = false
        color3f[] primvars:displayColor = [(0.25, 0.1899999976158142, 0.11999999731779099)]
    }
    def Cylinder "TankShoulderTop"
    {
        custom double3 xformOp:translate = (0.0, 0.4, 0.0)
        uniform token[] xformOpOrder = ["xformOp:translate"]
        double radius = 0.54
        double height = 0.12
        uniform token axis = "Y"
        float3[] extent = [(-0.5400000214576721, -0.05999999865889549, -0.5400000214576721), (0.5400000214576721, 0.05999999865889549, 0.5400000214576721)]
        uniform token purpose = "render"
        bool physics:collisionEnabled = false
        color3f[] primvars:displayColor = [(0.2800000011920929, 0.18000000715255737, 0.07999999821186066)]
    }
    def Cylinder "TankShoulderBottom"
    {
        custom double3 xformOp:translate = (0.0, -0.4, 0.0)
        uniform token[] xformOpOrder = ["xformOp:translate"]
        double radius = 0.54
        double height = 0.12
        uniform token axis = "Y"
        float3[] extent = [(-0.5400000214576721, -0.05999999865889549, -0.5400000214576721), (0.5400000214576721, 0.05999999865889549, 0.5400000214576721)]
        uniform token purpose = "render"
        bool physics:collisionEnabled = false
        color3f[] primvars:displayColor = [(0.2800000011920929, 0.18000000715255737, 0.07999999821186066)]
    }
    def Cylinder "TankValveTop"
    {
        custom double3 xformOp:translate = (0.0, 0.71, 0.0)
        uniform token[] xformOpOrder = ["xformOp:translate"]
        double radius = 0.055
        double height = 0.06
        uniform token axis = "Y"
        float3[] extent = [(-0.054999999701976776, -0.029999999329447746, -0.054999999701976776), (0.054999999701976776, 0.029999999329447746, 0.054999999701976776)]
        uniform token purpose = "render"
        bool physics:collisionEnabled = false
        color3f[] primvars:displayColor = [(0.47999998927116394, 0.5, 0.5299999713897705)]
    }
    def Cylinder "TankValveBottom"
    {
        custom double3 xformOp:translate = (0.0, -0.71, 0.0)
        uniform token[] xformOpOrder = ["xformOp:translate"]
        double radius = 0.055
        double height = 0.06
        uniform token axis = "Y"
        float3[] extent = [(-0.054999999701976776, -0.029999999329447746, -0.054999999701976776), (0.054999999701976776, 0.029999999329447746, 0.054999999701976776)]
        uniform token purpose = "render"
        bool physics:collisionEnabled = false
        color3f[] primvars:displayColor = [(0.47999998927116394, 0.5, 0.5299999713897705)]
    }
    def Cylinder "TankValveCapTop"
    {
        custom double3 xformOp:translate = (0.0, 0.8, 0.0)
        uniform token[] xformOpOrder = ["xformOp:translate"]
        double radius = 0.09
        double height = 0.12
        uniform token axis = "Y"
        float3[] extent = [(-0.09000000357627869, -0.05999999865889549, -0.09000000357627869), (0.09000000357627869, 0.05999999865889549, 0.09000000357627869)]
        uniform token purpose = "render"
        bool physics:collisionEnabled = false
        color3f[] primvars:displayColor = [(0.20000000298023224, 0.2199999988079071, 0.25)]
    }
    def Cylinder "TankValveCapBottom"
    {
        custom double3 xformOp:translate = (0.0, -0.8, 0.0)
        uniform token[] xformOpOrder = ["xformOp:translate"]
        double radius = 0.09
        double height = 0.12
        uniform token axis = "Y"
        float3[] extent = [(-0.09000000357627869, -0.05999999865889549, -0.09000000357627869), (0.09000000357627869, 0.05999999865889549, 0.09000000357627869)]
        uniform token purpose = "render"
        bool physics:collisionEnabled = false
        color3f[] primvars:displayColor = [(0.20000000298023224, 0.2199999988079071, 0.25)]
    }
    def Cylinder "TankCradle"
    {
        custom double3 xformOp:translate = (0.0, -0.9299999999999996, 0.0)
        uniform token[] xformOpOrder = ["xformOp:translate"]
        double radius = 0.74
        double height = 0.16
        uniform token axis = "Y"
        float3[] extent = [(-0.7400000095367432, -0.07999999821186066, -0.7400000095367432), (0.7400000095367432, 0.07999999821186066, 0.7400000095367432)]
        uniform token purpose = "render"
        bool physics:collisionEnabled = false
        color3f[] primvars:displayColor = [(0.20000000298023224, 0.2199999988079071, 0.25)]
    }
    def Cylinder "TankSupportPost"
    {
        custom double3 xformOp:translate = (0.0, -0.6999999999999997, 0.0)
        uniform token[] xformOpOrder = ["xformOp:translate"]
        double radius = 0.14
        double height = 0.0399999999999997
        uniform token axis = "Y"
        float3[] extent = [(-0.14000000059604645, -0.019999999552965164, -0.14000000059604645), (0.14000000059604645, 0.019999999552965164, 0.14000000059604645)]
        uniform token purpose = "render"
        bool physics:collisionEnabled = false
        color3f[] primvars:displayColor = [(0.10000000149011612, 0.11999999731779099, 0.15000000596046448)]
    }
    def Cone "TankTransitionTop"
    {
        custom double3 xformOp:translate = (0.0, 0.47, 0.0)
        uniform token[] xformOpOrder = ["xformOp:translate"]
        double radius1 = 0.54
        double radius2 = 0.14
        double radius = 0.54
        double height = 0.18
        uniform token axis = "Y"
        float3[] extent = [(-0.5400000214576721, -0.09000000357627869, -0.5400000214576721), (0.5400000214576721, 0.09000000357627869, 0.5400000214576721)]
        uniform token purpose = "render"
        color3f[] primvars:displayColor = [(0.2800000011920929, 0.18000000715255737, 0.07999999821186066)]
    }
    def Cone "TankTransitionBottom"
    {
        custom double3 xformOp:translate = (0.0, -0.47, 0.0)
        uniform token[] xformOpOrder = ["xformOp:translate"]
        double radius1 = 0.14
        double radius2 = 0.54
        double radius = 0.54
        double height = 0.18
        uniform token axis = "Y"
        float3[] extent = [(-0.5400000214576721, -0.09000000357627869, -0.5400000214576721), (0.5400000214576721, 0.09000000357627869, 0.5400000214576721)]
        uniform token purpose = "render"
        color3f[] primvars:displayColor = [(0.2800000011920929, 0.18000000715255737, 0.07999999821186066)]
    }
    def Sphere "MliTank"
    {
        custom double3 xformOp:translate = (0.0, 0.0, 0.0)
        uniform token[] xformOpOrder = ["xformOp:translate"]
        double radius = 0.84
        float3[] extent = [(-0.8399999737739563, -0.8399999737739563, -0.8399999737739563), (0.8399999737739563, 0.8399999737739563, 0.8399999737739563)]
        uniform token purpose = "render"
        bool physics:collisionEnabled = false
        color3f[] primvars:displayColor = [(0.5799999833106995, 0.4300000071525574, 0.23999999463558197)]
    }
}
