#usda 1.0
(
    defaultPrim = "World"
    upAxis = "Y"
    metersPerUnit = 1.0
)

def Xform "World"
{
    def Xform "EngineSkirt" (
        kind = "component"
    )
    {
        def Cube "RailFront" (
            prepend apiSchemas = "PhysicsCollisionAPI"
        )
        {
            custom double3 xformOp:scale = (3.2, 0.08, 0.08)
            uniform token[] xformOpOrder = ["xformOp:translate", "xformOp:scale"]
            double size = 1.0
            bool physics:collisionEnabled = false
            custom double3 xformOp:translate = (0.0, 0.0, 1.56)
            color3f[] primvars:displayColor = [(0.11999999731779099, 0.14000000059604645, 0.17000000178813934)]
            uniform token purpose = "render"
        }
        def Cube "RailRear" (
            prepend apiSchemas = "PhysicsCollisionAPI"
        )
        {
            custom double3 xformOp:scale = (3.2, 0.08, 0.08)
            uniform token[] xformOpOrder = ["xformOp:translate", "xformOp:scale"]
            double size = 1.0
            bool physics:collisionEnabled = false
            custom double3 xformOp:translate = (0.0, 0.0, -1.56)
            color3f[] primvars:displayColor = [(0.11999999731779099, 0.14000000059604645, 0.17000000178813934)]
            uniform token purpose = "render"
        }
        def Cube "RailPort" (
            prepend apiSchemas = "PhysicsCollisionAPI"
        )
        {
            custom double3 xformOp:scale = (0.08, 0.08, 3.2)
            uniform token[] xformOpOrder = ["xformOp:translate", "xformOp:scale"]
            double size = 1.0
            bool physics:collisionEnabled = false
            custom double3 xformOp:translate = (1.56, 0.0, 0.0)
            color3f[] primvars:displayColor = [(0.11999999731779099, 0.14000000059604645, 0.17000000178813934)]
            uniform token purpose = "render"
        }
        def Cube "RailStarboard" (
            prepend apiSchemas = "PhysicsCollisionAPI"
        )
        {
            custom double3 xformOp:scale = (0.08, 0.08, 3.2)
            uniform token[] xformOpOrder = ["xformOp:translate", "xformOp:scale"]
            double size = 1.0
            bool physics:collisionEnabled = false
            custom double3 xformOp:translate = (-1.56, 0.0, 0.0)
            color3f[] primvars:displayColor = [(0.11999999731779099, 0.14000000059604645, 0.17000000178813934)]
            uniform token purpose = "render"
        }
        def Mesh "EngineSkirtShell" (
            prepend apiSchemas = "PhysicsCollisionAPI"
        )
        {
            point3f[] points = [(-1.600000023841858, 0.03999999910593033, 1.5399999618530273), (-1.5399999618530273, 0.03999999910593033, 1.600000023841858), (1.5399999618530273, 0.03999999910593033, 1.600000023841858), (1.600000023841858, 0.03999999910593033, 1.5399999618530273), (1.600000023841858, 0.03999999910593033, -1.5399999618530273), (1.5399999618530273, 0.03999999910593033, -1.600000023841858), (-1.5399999618530273, 0.03999999910593033, -1.600000023841858), (-1.600000023841858, 0.03999999910593033, -1.5399999618530273), (-1.5399999618530273, -0.07999999821186066, 1.4800000190734863), (-1.4800000190734863, -0.07999999821186066, 1.5399999618530273), (1.4800000190734863, -0.07999999821186066, 1.5399999618530273), (1.5399999618530273, -0.07999999821186066, 1.4800000190734863), (1.5399999618530273, -0.07999999821186066, -1.4800000190734863), (1.4800000190734863, -0.07999999821186066, -1.5399999618530273), (-1.4800000190734863, -0.07999999821186066, -1.5399999618530273), (-1.5399999618530273, -0.07999999821186066, -1.4800000190734863)]
            int[] faceVertexCounts = [4, 4, 4, 4, 4, 4, 4, 4]
            int[] faceVertexIndices = [0, 1, 9, 8, 1, 2, 10, 9, 2, 3, 11, 10, 3, 4, 12, 11, 4, 5, 13, 12, 5, 6, 14, 13, 6, 7, 15, 14, 7, 0, 8, 15]
            uniform token subdivisionScheme = "none"
            uniform token purpose = "render"
            uniform bool doubleSided = true
            color3f[] primvars:displayColor = [(0.07000000029802322, 0.09000000357627869, 0.11999999731779099)]
            bool physics:collisionEnabled = false
        }
        def Cube "EngineAdapterPlate" (
            prepend apiSchemas = "PhysicsCollisionAPI"
        )
        {
            custom double3 xformOp:translate = (0.0, 0.42, 0.0)
            uniform token[] xformOpOrder = ["xformOp:translate", "xformOp:scale"]
            custom double3 xformOp:scale = (2.84, 0.12, 2.84)
            double size = 1.0
            bool physics:collisionEnabled = false
            uniform token purpose = "render"
            color3f[] primvars:displayColor = [(0.18000000715255737, 0.20000000298023224, 0.23000000417232513)]
        }
    }
}
