#usda 1.0
(
    defaultPrim = "FlipSensorMast"
    upAxis = "Y"
    metersPerUnit = 1.0
)

def Xform "FlipSensorMast" (
    kind = "component"
)
{
    custom string lunco:visual:component = "sensor_mast"
    def Cylinder "MastPost"
    {
        uniform token axis = "Y"
        float radius = 0.07000000029802322
        float height = 0.699999988079071
        custom double3 xformOp:translate = (0.0, 0.35, 0.0)
        uniform token[] xformOpOrder = ["xformOp:translate"]
        color3f[] primvars:displayColor = [(0.18000000715255737, 0.20000000298023224, 0.2199999988079071)]
        uniform token purpose = "render"
    }
    def Cube "SensorHead"
    {
        double size = 1.0
        custom double3 xformOp:translate = (0.0, 0.78, 0.0)
        double3 xformOp:scale = (0.4, 0.16, 0.24)
        uniform token[] xformOpOrder = ["xformOp:translate", "xformOp:scale"]
        color3f[] primvars:displayColor = [(0.11999999731779099, 0.14000000059604645, 0.17000000178813934)]
        uniform token purpose = "render"
    }
    def Cylinder "SensorAntenna"
    {
        uniform token axis = "Y"
        float radius = 0.02500000037252903
        float height = 0.2800000011920929
        custom double3 xformOp:translate = (0.0, 1.0, 0.0)
        uniform token[] xformOpOrder = ["xformOp:translate"]
        color3f[] primvars:displayColor = [(0.6499999761581421, 0.6700000166893005, 0.699999988079071)]
        uniform token purpose = "render"
    }
}
