#usda 1.0
(
    defaultPrim = "FlipSolarPanel"
    upAxis = "Y"
    metersPerUnit = 1.0
)

def Xform "FlipSolarPanel" (
    kind = "component"
)
{
    custom string lunco:visual:component = "flip_collapsible_solar_array"
    def Cube "WhiteBacksheet" (
        active = true
    )
    {
        double size = 1.0
        custom double3 xformOp:scale = (1.08, 0.04, 0.78)
        color3f[] primvars:displayColor = [(0.7799999713897705, 0.800000011920929, 0.8199999928474426)]
        uniform token purpose = "render"
        custom token[] xformOpOrder = ["xformOp:scale", "xformOp:translate"]
        custom double3 xformOp:translate = (0.0, 0.0, 0.0)
    }
    def Cube "BlueCells"
    {
        double size = 1.0
        custom double3 xformOp:translate = (0.0, 0.0325, 0.0)
        custom double3 xformOp:scale = (1.0, 0.015, 0.70)
        uniform token[] xformOpOrder = ["xformOp:translate", "xformOp:scale"]
        color3f[] primvars:displayColor = [(0.03999999910593033, 0.11999999731779099, 0.30000001192092896)]
        uniform token purpose = "render"
    }
    def Cube "FoldHinge"
    {
        double size = 1.0
        double3 xformOp:translate = (0.0, 0.0, -0.40)
        double3 xformOp:scale = (1.10, 0.06, 0.06)
        uniform token[] xformOpOrder = ["xformOp:translate", "xformOp:scale"]
        color3f[] primvars:displayColor = [(0.18000000715255737, 0.20000000298023224, 0.2199999988079071)]
        uniform token purpose = "render"
    }
}
